<svg t="1751251657931" class="icon" viewBox="0 0 1031 1024" version="1.1" xmlns="http://www.w3.org/2000/svg" p-id="7904" width="48" height="48"><path d="M521.1648 392.192v511.488H436.224V0h84.8384v58.8288c30.1056 23.808 95.3856 69.9392 149.1456 69.9392 72.448 0 178.8416 0.9216 225.1264 13.9264a379.6992 379.6992 0 0 0 130.56 7.5776c14.0288-3.84-99.3792 166.3488-99.3792 166.3488l104.96 173.6704a726.784 726.784 0 0 0-131.6864-22.6816c-75.1616-6.2464-259.072 6.9632-307.0464-27.0336a1840.8448 1840.8448 0 0 0-71.5776-48.4352z m118.4768 377.7024l0.3072-63.744c193.4336 21.504 333.1072 82.6368 333.1072 154.624 0 90.4704-218.2656 163.2256-486.5024 163.2256C218.2656 1024 0 951.04 0 860.8256c0-70.8096 136.192-131.6864 325.9392-153.9584v63.9488c-117.248 16.64-197.4784 50.5856-197.4784 90.0096 0 55.6032 160.256 100.8128 357.7856 100.8128 197.4784 0 357.7344-45.1072 357.7344-100.864 0-40.0896-83.7632-74.752-204.3392-90.88z" fill="#F23030" p-id="7905"></path></svg>